<?xml version="1.0" encoding="UTF-8"?><svg id="Ebene_1" xmlns="http://www.w3.org/2000/svg" viewBox="0 0 306.64 111.69"><defs><style>.cls-1{fill:#956695;}.cls-2{fill:#484840;}</style></defs><path class="cls-1" d="M135.73,0h13.55c.72,0,1.08.36,1.08,1.06v74.17c0,.71-.36,1.06-1.08,1.06h-13.55c-.72,0-1.08-.35-1.08-1.06V1.06c0-.7.36-1.06,1.08-1.06"/><path class="cls-1" d="M195.69,1.36c.28-.49.35-.84.21-1.04-.14-.22-.32-.32-.53-.32h-16.23c-.28,0-.5.1-.64.32-.14.21-23.45,29.86-23.45,29.86-2.58,3.36-3.18,6.33-3.2,7.97.02,1.63.62,4.59,3.2,7.96,0,0,23.3,29.66,23.45,29.87.14.21.36.31.64.31h16.23c.21,0,.39-.11.53-.31.14-.21.07-.56-.21-1.05,0,0-27.42-35.34-27.67-35.84-.23-.45-.35-.55-.37-.94.02-.4.14-.5.37-.95.25-.49,27.67-35.84,27.67-35.84"/><path class="cls-1" d="M243.9,41.24h-15.72c-1.32,0-.93-1.23-.93-1.23l7.94-25.49s.2-.68.85-.68.85.68.85.68l7.94,25.49c.38,1.23-.93,1.23-.93,1.23M272.3,75.65L250.51,6.28c-.87-2.77-2.48-4.5-4.83-5.21C243.33.36,240.1,0,235.99,0s-7.12.35-9.43,1.06c-2.32.71-3.9,2.45-4.78,5.21l-22.01,69.37c0,.43.29.64.87.64h14.09c.73,0,1.19-.36,1.41-1.07l5.74-18.19c.22-.78.69-1.17,1.41-1.17h25.48c.72,0,1.19.36,1.41,1.06l5.74,18.41c.22.63.69.96,1.41.96h14.2c.51,0,.76-.21.76-.64"/><path class="cls-1" d="M86.78,61.4v-15.43c0-.71.36-1.06,1.08-1.06h33.28c.72,0,1.09-.35,1.09-1.06v-12.24c0-.71-.36-1.06-1.09-1.06h-33.28c-.72,0-1.08-.35-1.08-1.06v-14.47c0-.78.36-1.18,1.08-1.18h35.89c.72,0,1.08-.35,1.08-1.06V1.06C124.83.36,124.37,0,123.42,0h-51.28c-.73,0-1.09.35-1.09,1.06v74.16c0,.71.36,1.07,1.09,1.07h51.6c.72,0,1.08-.36,1.08-1.07v-11.7c0-.71-.36-1.07-1.08-1.07h-35.89c-1.1,0-1.08-.7-1.08-1.06"/><path class="cls-1" d="M45.91,51.37c0,6.12-5.06,11.09-11.29,11.09h-17.98c-.72,0-1.09-.35-1.09-1.06V14.9c0-.71.36-1.06,1.09-1.06h17.27c6.63,0,12,5.27,12,11.77v25.76ZM61.8,53.71h0v-28.73C61.8,11.18,50.4,0,36.35,0H1.09C.36,0,0,.36,0,1.07v74.16c0,.71.36,1.06,1.09,1.06h37.7c12.7,0,23.01-10.11,23.01-22.58"/><path class="cls-2" d="M134.94,86.76c1.37-.11,3.14-.19,4.54-.19,4.77,0,6.68,1.29,6.68,4.9,0,2.6-1.2,3.73-3.31,4.26,2.48.48,3.85,1.8,3.85,4.65,0,4.38-2.06,5.63-7.17,5.63-1.88,0-3.48-.14-4.59-.25v-19ZM135.97,87.66v7.7h4.19c3.48,0,4.94-1.43,4.94-3.89,0-3-1.54-3.95-5.62-3.95-1.23,0-2.26.06-3.51.14M135.97,104.86c.89.08,2.2.17,3.57.17,4.54,0,6.08-1.15,6.08-4.62,0-3.19-1.97-4.12-5.45-4.12h-4.19v8.57Z"/><path class="cls-2" d="M160.2,97.43c0,.9-.54,1.43-1.6,1.54l-7.68.78c.2,4.17,1.09,5.49,4.71,5.49,1.28,0,2.71-.25,3.94-.53l.2.9c-1.37.31-2.91.53-4.37.53-3.97,0-5.54-1.46-5.54-7.2,0-5.27,1.66-7.2,5.36-7.2s4.97,1.37,4.97,5.69M150.92,98.89l7.56-.84c.46-.05.71-.36.71-.76,0-3.92-1.2-4.65-3.97-4.65-3.14,0-4.31,1.57-4.31,6.25"/><path class="cls-2" d="M163.59,100.68c0-.92.6-1.48,1.6-1.62l7.34-1.06c0-4.23-.26-5.35-4.03-5.35-1.4,0-3.08.28-4.34.62l-.2-.87c1.37-.36,3.11-.64,4.71-.64,4.62,0,4.85,1.8,4.85,7.09v7.12h-.94v-2.61c-.6,2.13-1.91,2.86-4.25,2.86-3.6,0-4.74-1.48-4.74-5.52M172.55,99.11v-.25l-7.28,1.09c-.46.06-.69.42-.69.82,0,3.47.91,4.56,3.74,4.56,3.22,0,4.22-1.74,4.22-6.22"/><path class="cls-2" d="M186.97,91.94h1v14.01h-.89l-.09-1.37c-1.6,1.18-2.74,1.57-4.17,1.57-3.56,0-4.85-1.54-4.85-5.27v-8.94h1v8.91c0,3.25.83,4.4,4.14,4.4,1.26,0,2.6-.59,3.85-1.6v-11.71Z"/><path class="cls-2" d="M193.18,99.2v-6.42h-1.97v-.81h1.97v-2.77l1-.28v3.02h4.51v.84h-4.51v7.71c0,3.2.23,4.76,2.62,4.76.52,0,1.46-.11,1.89-.2l.14.87c-.4.11-1.57.23-2.03.23-3.59,0-3.62-2.02-3.62-6.95"/><path class="cls-2" d="M202.11,91.94c.77,3.87,2.71,9.55,4.31,13.22,1.54-3.67,3.45-9.41,4.25-13.22h1.03c-.89,3.98-2.48,9.36-4.62,13.95-2.4,5.15-3.17,5.8-6.05,5.8v-.95c2.54,0,3-.76,4.88-4.62-1.91-3.92-3.77-9.39-4.83-14.18h1.03Z"/><path class="cls-2" d="M219.92,100.68c0-.92.6-1.48,1.6-1.62l7.33-1.06c0-4.23-.26-5.35-4.03-5.35-1.4,0-3.08.28-4.34.62l-.2-.87c1.37-.36,3.11-.64,4.71-.64,4.63,0,4.85,1.8,4.85,7.09v7.12h-.94v-2.61c-.6,2.13-1.91,2.86-4.26,2.86-3.59,0-4.74-1.48-4.74-5.52M228.88,99.11v-.25l-7.28,1.09c-.46.06-.69.42-.69.82,0,3.47.91,4.56,3.74,4.56,3.23,0,4.23-1.74,4.23-6.22"/><path class="cls-2" d="M235.39,105.95h-1v-14.01h.89l.09,1.37c1.6-1.18,2.74-1.57,4.17-1.57,3.79,0,4.85,1.54,4.85,5.27v8.94h-1v-8.91c0-3.22-.86-4.4-4.14-4.4-1.26,0-2.6.59-3.85,1.6v11.71Z"/><path class="cls-2" d="M258.53,105.95h-.89l-.09-1.35c-1.17.93-2.37,1.54-4,1.54-3.68,0-5.34-1.65-5.34-7.23s2.28-7.17,5.94-7.17c1.08,0,2.31.23,3.37.42v-5.77l1-.11v19.66ZM257.53,103.68v-10.64c-.74-.14-2.62-.4-3.31-.4-3.14,0-4.94,1.49-4.94,6.3s1.14,6.3,4.42,6.3c1.37,0,2.57-.56,3.83-1.57"/><path class="cls-2" d="M273.05,106.23c-1.34,0-3.91-.34-4.94-.56l.17-1.01c1.05.25,3.51.62,4.71.62,3.08,0,4.93-1.06,4.93-4.09,0-3.22-.68-3.84-4.65-4.71-4.25-.92-5.22-1.91-5.22-5.15,0-3.67,1.97-4.82,5.71-4.82,1.2,0,3.77.33,4.79.62l-.2.95c-.85-.25-3.48-.62-4.57-.62-3.2,0-4.65.7-4.65,3.84,0,2.75.68,3.36,4.54,4.23,4.45,1.01,5.34,1.79,5.34,5.46s-2.11,5.24-5.96,5.24"/><path class="cls-2" d="M282.98,91.94h.91l.06,1.35c1.17-.93,2.4-1.54,4.02-1.54,4.28,0,5.37,2.85,5.37,7.23,0,5.74-2.6,7.17-6.03,7.17-1.08,0-2.22-.17-3.34-.37v5.77h-1v-19.61ZM283.98,94.21v10.7c.74.14,2.6.34,3.28.34,2.99,0,5.02-1.26,5.02-6.3s-1.4-6.3-4.46-6.3c-1.37,0-2.59.56-3.85,1.57"/><path class="cls-2" d="M296.71,100.68c0-.92.6-1.48,1.6-1.62l7.33-1.06c0-4.23-.26-5.35-4.03-5.35-1.39,0-3.08.28-4.34.62l-.2-.87c1.37-.36,3.11-.64,4.71-.64,4.63,0,4.85,1.8,4.85,7.09v7.12h-.94v-2.61c-.6,2.13-1.91,2.86-4.26,2.86-3.59,0-4.74-1.48-4.74-5.52M305.67,99.11v-.25l-7.28,1.09c-.46.06-.69.42-.69.82,0,3.47.91,4.56,3.74,4.56,3.23,0,4.23-1.74,4.23-6.22"/></svg>